<?xml version="1.0" standalone="no"?>
<!DOCTYPE svg PUBLIC "-//W3C//DTD SVG 20010904//EN"
 "http://www.w3.org/TR/2001/REC-SVG-20010904/DTD/svg10.dtd">
<svg version="1.0" xmlns="http://www.w3.org/2000/svg"
 width="300.000000pt" height="300.000000pt" viewBox="0 0 300.000000 300.000000"
 preserveAspectRatio="xMidYMid meet">
<metadata>
Created by potrace 1.10, written by Peter Selinger 2001-2011
</metadata>
<g transform="translate(0.000000,300.000000) scale(0.100000,-0.100000)"
fill="#000000" stroke="none">
<path d="M858 2911 c-52 -24 -62 -37 -13 -16 59 26 83 29 103 14 15 -13 16
-12 3 4 -17 21 -45 21 -93 -2z"/>
<path d="M893 2869 c-28 -10 -30 -19 -3 -12 19 5 20 0 20 -81 0 -47 3 -86 8
-86 4 0 6 35 4 78 -4 114 -4 111 -29 101z"/>
<path d="M992 2772 c46 -39 110 -87 128 -96 8 -4 2 3 -15 16 -16 13 -54 42
-82 66 -58 47 -83 58 -31 14z"/>
<path d="M1145 2662 c23 -24 171 -90 160 -72 -3 6 -11 10 -16 10 -6 0 -43 16
-82 36 -40 19 -67 31 -62 26z"/>
<path d="M777 2569 c-37 -43 -63 -79 -58 -79 6 0 16 9 23 19 6 10 16 18 22 17
6 -2 8 -1 3 2 -4 2 13 26 38 54 25 28 45 54 45 59 0 13 1 14 -73 -72z"/>
<path d="M1362 2388 c-49 -50 -53 -52 -75 -39 -68 42 -73 44 -42 18 49 -43 63
-43 106 -1 21 21 39 32 39 25 0 -7 5 -9 11 -5 8 5 8 9 -1 14 -8 5 -5 9 9 13
12 3 21 10 21 16 0 20 -15 11 -68 -41z"/>
<path d="M648 2163 c-41 -58 -50 -73 -45 -73 2 0 23 27 46 60 23 33 40 60 38
60 -3 0 -20 -21 -39 -47z"/>
<path d="M2660 1580 c-19 -20 -53 -50 -74 -68 -22 -17 -38 -33 -35 -36 2 -2
38 26 79 64 41 38 73 70 70 72 -3 2 -21 -13 -40 -32z"/>
<path d="M2591 1586 c-7 -8 -33 -27 -58 -42 -34 -19 -42 -28 -32 -35 10 -6 28
5 59 34 24 23 47 43 49 45 2 1 2 4 -1 7 -3 3 -11 -1 -17 -9z"/>
<path d="M2436 1540 c-67 -48 -109 -84 -76 -64 54 31 168 118 148 113 -2 0
-34 -23 -72 -49z"/>
<path d="M2434 1443 c-33 -32 -49 -49 -35 -38 38 30 107 95 101 95 -3 0 -33
-26 -66 -57z"/>
<path d="M1642 1424 c-46 -35 -80 -64 -75 -64 4 0 46 29 92 65 46 36 80 65 75
64 -5 0 -46 -29 -92 -65z"/>
<path d="M2520 1455 c-10 -12 -10 -18 0 -30 7 -8 10 -26 8 -40 -3 -13 -1 -22
3 -19 13 8 11 48 -3 62 -8 8 -8 15 2 27 7 8 10 15 7 15 -2 0 -10 -7 -17 -15z"/>
<path d="M1515 1389 c-110 -86 -122 -93 -160 -92 -18 1 -22 0 -11 -4 13 -3 15
-7 7 -13 -10 -6 -10 -8 1 -12 7 -3 71 39 142 93 71 55 124 99 120 99 -5 0 -50
-32 -99 -71z"/>
<path d="M1300 1430 c0 -17 -51 -85 -73 -97 -12 -7 -16 -12 -9 -13 8 0 26 13
40 29 35 38 66 91 53 91 -6 0 -11 -4 -11 -10z"/>
<path d="M2249 1406 c-25 -19 -54 -36 -65 -39 -18 -4 -18 -5 0 -6 16 -1 116
63 116 75 0 7 -3 5 -51 -30z"/>
<path d="M2356 1422 c-3 -5 -41 -33 -85 -62 -45 -30 -79 -55 -77 -58 5 -4 152
96 167 114 6 8 9 14 6 14 -3 0 -8 -4 -11 -8z"/>
<path d="M2290 1320 c-36 -33 -62 -59 -58 -60 3 0 35 27 70 60 34 33 61 59 58
59 -3 0 -34 -26 -70 -59z"/>
<path d="M2441 1361 c-12 -12 -23 -21 -26 -21 -3 1 -13 -4 -23 -9 -15 -10 -15
-10 4 -8 24 3 80 45 71 53 -3 3 -15 -4 -26 -15z"/>
<path d="M2324 1172 c-99 -97 -146 -145 -105 -106 123 114 296 284 291 284 -3
0 -86 -80 -186 -178z"/>
<path d="M1422 1255 c-47 -37 -120 -107 -87 -84 11 8 34 26 50 41 17 14 44 38
60 52 44 37 27 31 -23 -9z"/>
<path d="M1028 1239 c-47 -24 -48 -29 -3 -15 19 6 35 15 35 19 0 5 5 5 12 1 7
-4 8 -3 4 4 -4 7 -8 12 -9 12 -1 -1 -19 -10 -39 -21z"/>
<path d="M1307 1222 c-20 -21 -37 -42 -37 -46 0 -5 19 10 41 33 23 23 40 44
37 46 -2 3 -21 -12 -41 -33z"/>
<path d="M2158 1205 c-18 -15 -23 -25 -15 -28 7 -4 6 -6 -4 -6 -17 -1 -69 -41
-53 -41 14 0 66 37 65 46 0 5 10 19 21 32 28 29 20 28 -14 -3z"/>
<path d="M2203 1129 c-55 -55 -97 -99 -93 -97 14 6 203 188 199 192 -3 3 -50
-40 -106 -95z"/>
<path d="M1225 1170 c-14 -22 -25 -44 -25 -50 0 -14 17 -13 26 2 4 7 3 8 -4 4
-18 -11 -15 0 13 44 14 22 23 40 20 40 -2 0 -16 -18 -30 -40z"/>
<path d="M1282 1122 c-15 -15 -54 -57 -87 -92 -41 -44 -30 -36 33 25 50 49 92
91 92 92 0 9 -13 0 -38 -25z"/>
<path d="M529 1097 c-49 -46 -36 -40 24 11 21 18 34 32 30 32 -4 0 -29 -19
-54 -43z"/>
<path d="M415 1003 l-50 -46 50 38 c28 22 52 40 54 42 2 2 2 5 0 7 -2 2 -26
-16 -54 -41z"/>
<path d="M301 912 c-40 -35 -52 -52 -48 -67 4 -18 5 -18 6 2 1 17 48 64 100
100 2 2 2 5 0 7 -3 3 -29 -16 -58 -42z"/>
<path d="M1766 928 c3 -4 2 -8 -3 -8 -4 0 -21 -12 -38 -26 -37 -31 -1 -14 39
19 20 16 24 24 13 24 -9 0 -14 -4 -11 -9z"/>
<path d="M1835 829 c-133 -89 -220 -153 -140 -103 47 30 279 186 290 195 27
25 -15 -1 -150 -92z"/>
<path d="M1323 903 c-18 -9 -33 -21 -33 -26 0 -5 6 -5 13 2 10 8 17 7 26 -2
11 -10 13 -9 9 3 -3 8 4 20 16 27 31 18 6 14 -31 -4z"/>
<path d="M1976 865 c-43 -29 -83 -59 -90 -66 -6 -6 32 17 84 51 109 72 106 70
94 69 -5 0 -44 -24 -88 -54z"/>
<path d="M1797 745 c-37 -25 -67 -48 -67 -51 0 -6 8 -1 83 49 49 34 65 47 54
47 -1 0 -33 -20 -70 -45z"/>
<path d="M1420 685 c-19 -23 -2 -35 50 -35 37 0 48 -3 44 -13 -3 -8 -10 -14
-17 -14 -17 -1 -125 -63 -109 -63 13 0 47 17 72 37 8 6 20 12 25 12 26 3 45
13 39 23 -4 6 -1 9 7 6 16 -6 84 26 95 44 4 6 -8 2 -27 -9 -29 -18 -45 -20
-106 -16 -74 6 -82 10 -61 31 7 7 9 12 6 12 -3 0 -11 -7 -18 -15z"/>
<path d="M1580 599 c-93 -62 -154 -109 -110 -83 36 20 220 146 220 150 0 7 -1
6 -110 -67z"/>
<path d="M1323 429 c-24 -16 -37 -18 -51 -10 -15 8 -25 6 -42 -9 -13 -11 -18
-20 -13 -20 6 0 16 7 23 15 9 11 17 12 31 4 19 -10 70 9 84 31 8 13 6 12 -32
-11z"/>
<path d="M312 341 c-2 -57 -6 -69 -37 -107 -19 -23 -35 -46 -35 -49 0 -4 18
15 40 43 40 49 41 53 37 114 l-3 63 -2 -64z"/>
</g>
</svg>
